<?xml version="1.0" standalone="no"?><!DOCTYPE svg PUBLIC "-//W3C//DTD SVG 1.1//EN" "http://www.w3.org/Graphics/SVG/1.1/DTD/svg11.dtd"><svg t="1648588160692" class="icon" viewBox="0 0 1024 1024" version="1.1" xmlns="http://www.w3.org/2000/svg" p-id="2353" xmlns:xlink="http://www.w3.org/1999/xlink" width="200" height="200"><defs><style type="text/css">@font-face { font-family: feedback-iconfont; src: url("//at.alicdn.com/t/font_1031158_u69w8yhxdu.woff2?t=1630033759944") format("woff2"), url("//at.alicdn.com/t/font_1031158_u69w8yhxdu.woff?t=1630033759944") format("woff"), url("//at.alicdn.com/t/font_1031158_u69w8yhxdu.ttf?t=1630033759944") format("truetype"); }
</style></defs><path d="M658.069333 256a64 64 0 0 1 64 64l-0.021333 33.664 49.28-38.4A64 64 0 0 1 874.666667 365.781333v338.368a64 64 0 0 1-103.338667 50.474667l-49.28-38.4v26.496a64 64 0 0 1-64 64H213.333333a64 64 0 0 1-64-64V320a64 64 0 0 1 64-64h444.736z m0 64H213.333333v422.698667h444.736l-0.128-157.589334L810.666667 704.128V365.76l-152.704 118.933333 0.106666-164.693333zM384 397.312a42.666667 42.666667 0 0 1 22.741333 6.570667l133.866667 84.330666a42.666667 42.666667 0 0 1 0.32 72l-133.866667 86.016A42.666667 42.666667 0 0 1 341.333333 610.325333v-170.346666a42.666667 42.666667 0 0 1 42.666667-42.666667z m21.333333 81.322667v92.629333l72.789334-46.762667L405.333333 478.634667z" p-id="2354"></path></svg>